<?xml version="1.0" encoding="UTF-8" standalone="no"?>
<!-- Created with Inkscape (http://www.inkscape.org/) -->

<svg
   width="46.39983"
   height="46.319328"
   viewBox="0 0 12.276622 12.255322"
   version="1.1"
   id="svg1"
   xml:space="preserve"
   xmlns="http://www.w3.org/2000/svg"
   xmlns:svg="http://www.w3.org/2000/svg"><defs
     id="defs1" /><rect
     style="fill:#232323;fill-opacity:1;stroke:#222222;stroke-width:1.6;stroke-linecap:round;stroke-linejoin:round;stroke-dasharray:none;stroke-opacity:1;paint-order:normal"
     id="rect14"
     width="10.676622"
     height="10.655322"
     x="0.80000001"
     y="0.80000001" /><path
     d="m 1.8115412,6.1524389 c 0.0078,0 0.01449,-0.00209 0.02174,-0.00209 l 0.486632,2.20558 a 1.2926819,1.3032027 0 1 0 1.731687,1.6560161 L 7.769678,10.636669 A 1.2895757,1.3000713 0 1 0 9.5955836,9.4049669 l 0.9846544,-4.299473 c 0.01088,0 0.02071,0.00314 0.0321,0.00314 A 1.294235,1.3047685 0 1 0 9.5614196,3.0470898 L 7.216266,1.9970122 A 1.294235,1.3047685 0 1 0 4.787247,2.2725793 L 2.6662542,3.8753568 A 1.2916465,1.3021589 0 1 0 1.8115412,6.1524389 Z M 2.3385542,6.0365751 A 1.2994119,1.3099875 0 0 0 2.9908482,5.3789722 L 5.178623,5.869565 c 0,0.0073 -0.0021,0.014091 -0.0021,0.021918 A 1.2859519,1.2964179 0 0 0 5.391884,6.6101498 L 3.5592472,8.4577029 a 1.2854342,1.2958961 0 0 0 -0.712347,-0.217635 c -0.0072,0 -0.01449,0.0021 -0.02174,0.0021 z M 6.057668,4.6613496 A 1.2947527,1.3052903 0 0 0 5.29148,5.3601832 L 3.1037052,4.8695903 c 0,-0.0073 0.0021,-0.014091 0.0021,-0.021918 A 1.2797395,1.290155 0 0 0 2.9779352,4.2918408 L 5.09841,2.6885413 a 1.282328,1.2927646 0 0 0 0.75428,0.3220169 z m 1.18966,0.9691818 V 6.1524389 A 0.51769398,0.52190739 0 0 1 6.729634,6.6743459 H 6.21194 A 0.51769398,0.52190739 0 0 1 5.694246,6.1524389 V 5.6305314 A 0.51769398,0.52190739 0 0 1 6.21194,5.1086239 H 6.729634 A 0.51769398,0.52190739 0 0 1 7.247328,5.6305314 Z M 7.854583,10.121544 4.135987,9.4968209 A 1.2854342,1.2958961 0 0 0 3.9252862,8.8261699 L 5.757922,6.9786179 a 1.245054,1.2551873 0 0 0 1.099065,0.1513535 l 1.36257,2.4738405 A 1.2911288,1.301637 0 0 0 7.854065,10.121544 Z M 3.1057762,10.327698 H 2.5880822 A 0.51769398,0.52190739 0 0 1 2.0703882,9.8057901 V 9.2838829 a 0.51769398,0.52190739 0 0 1 0.517694,-0.521908 h 0.517694 a 0.51769398,0.52190739 0 0 1 0.517694,0.521908 v 0.5219072 a 0.51769398,0.52190739 0 0 1 -0.517694,0.5219079 z m 6.7300219,0 v 0.521907 A 0.51769398,0.52190739 0 0 1 9.3181036,11.371512 H 8.80041 A 0.51769398,0.52190739 0 0 1 8.282716,10.849605 V 10.327698 A 0.51769398,0.52190739 0 0 1 8.80041,9.8057901 H 9.3181036 A 0.51769398,0.52190739 0 0 1 9.8357981,10.327698 Z M 9.091354,9.2870139 c -0.01035,0 -0.02071,-0.0031 -0.0321,-0.0031 a 1.2766334,1.2870236 0 0 0 -0.386715,0.06629 l -1.36257,-2.47388 A 1.2481602,1.2583187 0 0 0 7.715841,5.5558979 L 9.5992116,4.6060269 A 1.2952704,1.3058123 0 0 0 10.075491,4.987541 Z m 1.262138,-6.2660195 h 0.517694 A 0.51769398,0.52190739 0 0 1 11.38888,3.5429018 V 4.0648092 A 0.51769398,0.52190739 0 0 1 10.871186,4.5867164 H 10.353492 A 0.51769398,0.52190739 0 0 1 9.8357981,4.0648092 V 3.5429018 A 0.51769398,0.52190739 0 0 1 10.353492,3.0209944 Z M 9.3496826,3.5235913 a 1.1912139,1.2009089 0 0 0 0.0176,0.6158507 L 7.483914,5.0893131 A 1.2854342,1.2958961 0 0 0 6.57122,4.5971548 L 6.366213,2.9463617 A 1.2937173,1.3042466 0 0 0 7.003494,2.4724698 Z M 5.176552,1.9771796 V 1.4552723 A 0.51769398,0.52190739 0 0 1 5.694246,0.93336489 H 6.21194 A 0.51769398,0.52190739 0 0 1 6.729634,1.4552723 V 1.9771796 A 0.51769398,0.52190739 0 0 1 6.21194,2.4990871 H 5.694246 A 0.51769398,0.52190739 0 0 1 5.176552,1.9771796 Z M 1.0350012,4.5867164 a 0.51769398,0.52190739 0 0 1 0.517693,-0.5219072 h 0.517694 a 0.51769398,0.52190739 0 0 1 0.517694,0.5219072 V 5.1086239 A 0.51769398,0.52190739 0 0 1 2.0703882,5.6305314 H 1.5526942 A 0.51769398,0.52190739 0 0 1 1.0350012,5.1086239 Z"
     id="path1"
     style="fill:#ffffff;stroke-width:0.519;stroke-dasharray:none" /></svg>
